# xmcd
#
# Track frame offsets:
#	150
#	36785
#	62562
#	78867
#	95155
#	113565
#	125757
#	137025
#	147690
#	155937
#	163547
#	184895
#	211847
#	220925
#	240490
#	256800
#	270220
#	287955
#	303017
#	319067
#
# Disc length: 4496 seconds
#
# Revision: 0
# Processed by: cddbd v1.5.2PL0 Copyright (c) Steve Scherf et al.
# Submitted via: EZCDAudioConverter 2.1.7.1
#
DISCID=24118e14
DTITLE=V/A - Varèse Sarabande: A 25th Anniversary Celebration 2/3
DYEAR=2003
DGENRE=
TTITLE0=Georges Delerue - Steel Magnolias
TTITLE1=Lennie Niehaus and Clint Eastwood - Unforgiven
TTITLE2=Jerry Goldsmith - Raggedy Man
TTITLE3=Elmer Bernstein - The Grifters
TTITLE4=Hans Zimmer - Green Card
TTITLE5=Marc Shaiman - City Slickers
TTITLE6=Alan Silvestri - Father Of The Bride
TTITLE7=Randy Edelman - While You Were Sleeping
TTITLE8=Nigel Westlake - Babe
TTITLE9=Henry Mancini - The Adventures Of The Great Mouse Detective
TTITLE10=Erich Wolfgang Korngold - The Adventures Of Robin Hood
TTITLE11=Laurence Rosenthal - The Young Indiana Jones Chronicles
TTITLE12=Zbigniew Presiner - The Secret Garden
TTITLE13=Patrick Doyle - A Little Princess
TTITLE14=Jerry Goldsmith - Rudy
TTITLE15=Joel McNeely - Iron Will
TTITLE16=George Fenton - Memphis Belle
TTITLE17=Miklós Rózsa - Eye Of The Needle
TTITLE18=Jerry Goldsmith - Total Recall
TTITLE19=Alan Silvestri - Back To The Future Part III
EXTD=
EXTT0=
EXTT1=
EXTT2=
EXTT3=
EXTT4=
EXTT5=
EXTT6=
EXTT7=
EXTT8=
EXTT9=
EXTT10=
EXTT11=
EXTT12=
EXTT13=
EXTT14=
EXTT15=
EXTT16=
EXTT17=
EXTT18=
EXTT19=
PLAYORDER=
